# xmcd
#
# Track frame offsets:
#	150
#	43845
#	77869
#	97692
#	129741
#	148899
#	167737
#	186608
#	220799
#	237906
#	254708
#	271710
#	296273
#	307015
#	332743
#
# Disc length: 4618 seconds
#
# Revision: 1
# Processed by: cddbd v1.5.1PL0 Copyright (c) Steve Scherf et al.
# Submitted via: audiograbber 1.83.01
#
DISCID=e512080f
DTITLE=Ten Years After - The Fery Best
DYEAR=1900
DGENRE=
TTITLE0=I'm Going Home
TTITLE1=Love Like A Man
TTITLE2=It's Getting Harder
TTITLE3=Good Morning Little Schoolgirl
TTITLE4=Working On The Road
TTITLE5=Sweet Little Sixteen
TTITLE6=Me And My Baby
TTITLE7=50.000 Miles Beneath My Brain
TTITLE8=Rock 'N Roll Music To The World
TTITLE9=I'd Love To Change The World
TTITLE10=I'm Coming On
TTITLE11=I Woke Up This Morning
TTITLE12=Year 3000 Blues
TTITLE13=One Of These Days
TTITLE14=Stoned Woman
EXTD=
EXTT0=
EXTT1=
EXTT2=
EXTT3=
EXTT4=
EXTT5=
EXTT6=
EXTT7=
EXTT8=
EXTT9=
EXTT10=
EXTT11=
EXTT12=
EXTT13=
EXTT14=
PLAYORDER=
